<svg width="470" height="470" xmlns="http://www.w3.org/2000/svg">
 <defs>
  <clipPath id="clip1">
   <path id="svg_1" d="m144,54l504,0l0,504l-504,0l0,-504zm0,0"/>
  </clipPath>
 </defs>
 <g>
  <title>background</title>
  <rect fill="none" id="canvas_background" height="472" width="472" y="-1" x="-1"/>
 </g>
 <g>
  <title>Layer 1</title>
  <g id="svg_9">
   <path id="svg_4" fill-rule="evenodd" fill="rgb(43.899536%,18.798828%,62.69989%)" d="m262.584997,2c82.76172,0 156.10157,53.28125 181.67188,131.98828l-58.13281,18.89063c-17.38672,-53.51953 -67.26954,-89.75782 -123.53907,-89.75782l0,-61.12109zm0,0"/>
   <path id="svg_5" fill-rule="evenodd" fill="rgb(0%,43.899536%,75.299072%)" d="m460.917027,185.25c25.57032,78.69922 -2.44921,164.92188 -69.40234,213.57031l-35.92969,-49.46093c45.53125,-33.07032 64.58203,-91.71094 47.19141,-145.21875l58.14062,-18.89063zm0,0"/>
   <path id="svg_6" fill-rule="evenodd" fill="rgb(0%,68.998718%,31.399536%)" d="m347.917027,430.48828c-66.94921,48.64844 -157.60937,48.64844 -224.5625,0l35.92969,-49.44922c45.53125,33.08203 107.1836,33.08203 152.70313,0l35.92968,49.44922zm0,0"/>
   <path id="svg_7" fill-rule="evenodd" fill="rgb(100%,75.299072%,0%)" d="m79.756877,398.82031c-66.94922,-48.64843 -94.97266,-134.87109 -69.39063,-213.57031l58.12891,18.89063c-17.39063,53.50781 1.66016,112.14843 47.19141,145.21875l-35.92969,49.46093zm0,0"/>
   <path id="svg_8" fill-rule="evenodd" fill="rgb(75.299072%,0%,0%)" d="m27.014687,133.98828c25.57031,-78.70703 98.92188,-131.98828 181.67188,-131.98828l0,61.12109c-56.26954,0 -106.14063,36.23829 -123.53125,89.75782l-58.14063,-18.89063zm0,0"/>
  </g>
 </g>
</svg>