<svg width="128" height="128" xmlns="http://www.w3.org/2000/svg">
 <defs>
  <clipPath id="clip1">
   <path d="m144,54l504,0l0,504l-504,0l0,-504zm0,0" id="svg_1"/>
  </clipPath>
 </defs>
 <g>
  <title>background</title>
  <rect x="-1" y="-1" width="130" height="130" id="canvas_background" fill="none"/>
 </g>
 <g>
  <title>Layer 1</title>
  <g stroke="null" id="svg_9">
   <path stroke="null" d="m71.139973,1.032259c22.395392,0 42.241218,14.417952 49.160566,35.716141l-15.730788,5.111821c-4.704861,-14.48243 -18.203195,-24.288543 -33.429778,-24.288543l0,-16.539419zm0,0" fill="rgb(43.899536%,18.798828%,62.69989%)" fill-rule="evenodd" id="svg_4"/>
   <path stroke="null" d="m124.80879,50.619865c6.91935,21.296076 -0.662758,44.628001 -18.780332,57.792308l-9.722605,-13.38417c12.320795,-8.948857 17.475952,-24.817059 12.770036,-39.296318l15.732901,-5.111821zm0,0" fill="rgb(0%,43.899536%,75.299072%)" fill-rule="evenodd" id="svg_5"/>
   <path stroke="null" d="m94.230893,116.981553c-18.116513,13.164309 -42.64923,13.164309 -60.766804,0l9.722605,-13.381001c12.320795,8.952026 29.003974,8.952026 41.321597,0l9.722602,13.381001zm0,0" fill="rgb(0%,68.998718%,31.399536%)" fill-rule="evenodd" id="svg_6"/>
   <path stroke="null" d="m21.666528,108.412174c-18.116516,-13.164307 -25.699683,-36.496232 -18.777164,-57.792308l15.729733,5.111821c-4.705919,14.479259 0.449241,30.347461 12.770036,39.296318l-9.722605,13.38417zm0,0" fill="rgb(100%,75.299072%,0%)" fill-rule="evenodd" id="svg_7"/>
   <path stroke="null" d="m7.394446,36.7484c6.919348,-21.298189 26.768345,-35.716141 49.160566,-35.716141l0,16.539419c-15.226586,0 -28.721745,9.806112 -33.427662,24.288543l-15.732904,-5.111821zm0,0" fill="rgb(75.299072%,0%,0%)" fill-rule="evenodd" id="svg_8"/>
  </g>
 </g>
</svg>