<svg width="24" height="24" xmlns="http://www.w3.org/2000/svg">

 <g>
  <title>background</title>
  <rect fill="none" id="canvas_background" height="26" width="26" y="-1" x="-1"/>
 </g>
 <g>
  <title>Layer 1</title>
  <g stroke="null" id="svg_9">
   <path stroke="null" d="m13.344519,0.07134c4.222013,0 7.963378,2.718094 9.267824,6.733261l-2.965592,0.963688c-0.886968,-2.73025 -3.431694,-4.578913 -6.302232,-4.578913l0,-3.118036zm0,0" fill="rgb(43.899536%,18.798828%,62.69989%)" fill-rule="evenodd" id="svg_4"/>
   <path stroke="null" d="m23.462245,9.41967c1.304446,4.014768 -0.124944,8.413338 -3.540497,10.895093l-1.83292,-2.523204c2.322735,-1.687052 3.294593,-4.678549 2.407426,-7.408201l2.96599,-0.963688zm0,0" fill="rgb(0%,43.899536%,75.299072%)" fill-rule="evenodd" id="svg_5"/>
   <path stroke="null" d="m17.697654,21.930276c-3.415352,2.481756 -8.040297,2.481756 -11.45585,0l1.83292,-2.522607c2.322735,1.687649 5.467873,1.687649 7.79001,0l1.83292,2.522607zm0,0" fill="rgb(0%,68.998718%,31.399536%)" fill-rule="evenodd" id="svg_6"/>
   <path stroke="null" d="m4.01771,20.314763c-3.415353,-2.481755 -4.844943,-6.880325 -3.539899,-10.895093l2.965393,0.963688c-0.887167,2.729652 0.084692,5.721149 2.407426,7.408201l-1.83292,2.523204zm0,0" fill="rgb(100%,75.299072%,0%)" fill-rule="evenodd" id="svg_7"/>
   <path stroke="null" d="m1.327115,6.804601c1.304446,-4.015167 5.046409,-6.733261 9.267824,-6.733261l0,3.118036c-2.870539,0 -5.414667,1.848663 -6.301833,4.578913l-2.965991,-0.963688zm0,0" fill="rgb(75.299072%,0%,0%)" fill-rule="evenodd" id="svg_8"/>
  </g>
 </g>
</svg>